<?xml version="1.0" encoding="UTF-8" standalone="no"?>
<svg
   xmlns:dc="http://purl.org/dc/elements/1.1/"
   xmlns:cc="http://creativecommons.org/ns#"
   xmlns:rdf="http://www.w3.org/1999/02/22-rdf-syntax-ns#"
   xmlns:svg="http://www.w3.org/2000/svg"
   xmlns="http://www.w3.org/2000/svg"
   viewBox="0 0 486.98252 289.775"
   height="289.77499"
   width="486.98251"
   xml:space="preserve"
   version="1.1"
   id="svg2"><metadata
     id="metadata8"><rdf:RDF><cc:Work
         rdf:about=""><dc:format>image/svg+xml</dc:format><dc:type
           rdf:resource="http://purl.org/dc/dcmitype/StillImage" /><dc:title></dc:title></cc:Work></rdf:RDF></metadata><defs
     id="defs6"><clipPath
       id="clipPath66"
       clipPathUnits="userSpaceOnUse"><path
         id="path68"
         d="m 533,244.125 72,0 0,71.875 -72,0 0,-71.875 z" /></clipPath><clipPath
       id="clipPath82"
       clipPathUnits="userSpaceOnUse"><path
         id="path84"
         d="m 471.926,323 27.074,0 0,28 -27.074,0 0,-28 z" /></clipPath><clipPath
       id="clipPath92"
       clipPathUnits="userSpaceOnUse"><path
         id="path94"
         d="m 502,323 27,0 0,37.035 -27,0 0,-37.035 z" /></clipPath><clipPath
       id="clipPath110"
       clipPathUnits="userSpaceOnUse"><path
         id="path112"
         d="m 645,324 21.719,0 0,26 -21.719,0 0,-26 z" /></clipPath></defs><g
     transform="matrix(1.25,0,0,1.25,-589.9075,-160.26875)"
     id="g10"><g
       transform="matrix(2,0,0,2,-471.926,-360.035)"
       id="g62"><g
         clip-path="url(#clipPath66)"
         id="g64"><path
           id="path70"
           style="fill:#ee265e;fill-opacity:1;fill-rule:nonzero;stroke:none"
           d="m 604.781,279.582 c 0,-19.582 -15.875,-35.457 -35.457,-35.457 -19.582,0 -35.457,15.875 -35.457,35.457 0,19.582 15.875,35.457 35.457,35.457 19.582,0 35.457,-15.875 35.457,-35.457" /><path
           id="path72"
           style="fill:#ffffff;fill-opacity:1;fill-rule:nonzero;stroke:none"
           d="m 546.879,284.004 c 0,-3 2.441,-5.442 5.441,-5.442 3,0 5.442,2.442 5.442,5.442 0,3.004 -2.442,5.441 -5.442,5.441 -3,0 -5.441,-2.437 -5.441,-5.441 m 13.004,0 c 0,-4.168 -3.391,-7.563 -7.563,-7.563 -4.172,0 -7.562,3.395 -7.562,7.563 0,4.172 3.39,7.566 7.562,7.566 4.172,0 7.563,-3.394 7.563,-7.566" /><path
           id="path74"
           style="fill:#ffffff;fill-opacity:1;fill-rule:nonzero;stroke:none"
           d="m 583.555,289.449 -5.442,0 c -3,0 -5.441,-2.441 -5.441,-5.445 0,-3 2.441,-5.442 5.441,-5.442 l 5.442,0 0,10.887 z m 1.062,-13.008 -6.504,0 c -4.172,0 -7.562,3.395 -7.562,7.563 0,4.172 3.39,7.566 7.562,7.566 l 6.504,0 c 0.586,0 1.059,-0.476 1.059,-1.062 l 0,-13.008 c 0,-0.586 -0.473,-1.059 -1.059,-1.059" /><path
           id="path76"
           style="fill:#ffffff;fill-opacity:1;fill-rule:nonzero;stroke:none"
           d="m 590.906,285.203 c -0.664,0 -1.199,-0.539 -1.199,-1.199 0,-0.66 0.535,-1.195 1.199,-1.195 0.66,0 1.196,0.535 1.196,1.195 0,0.66 -0.536,1.199 -1.196,1.199 m 0,10.465 c 0.66,0 1.196,0.539 1.196,1.199 0,0.66 -0.536,1.199 -1.196,1.199 -0.664,0 -1.199,-0.539 -1.199,-1.199 0,-0.66 0.535,-1.199 1.199,-1.199 m -52.019,-15.242 c 0.222,-0.227 0.527,-0.352 0.843,-0.352 0.321,0 0.622,0.125 0.848,0.352 0.469,0.469 0.469,1.23 0,1.695 -0.453,0.453 -1.242,0.453 -1.695,0 -0.465,-0.465 -0.465,-1.226 0.004,-1.695 m 10.359,-7.742 c -0.453,0.453 -1.242,0.453 -1.695,0 -0.469,-0.469 -0.469,-1.227 0,-1.696 0.234,-0.234 0.539,-0.351 0.847,-0.351 0.309,0 0.614,0.117 0.848,0.351 0.465,0.469 0.465,1.227 0,1.696 m 45.566,-13.707 -10.195,0 c -0.586,0 -1.062,0.476 -1.062,1.062 l 0,10.043 -5.512,0 c -5.828,0 -10.828,3.609 -12.898,8.707 -0.676,-1.652 -1.68,-3.195 -3.02,-4.535 -2.887,-2.887 -6.797,-4.313 -10.836,-4.02 -0.148,-0.265 -0.32,-0.519 -0.543,-0.746 -1.293,-1.293 -3.398,-1.293 -4.695,0 -1.293,1.293 -1.293,3.399 0,4.696 0.629,0.625 1.461,0.972 2.347,0.972 0.887,0 1.719,-0.347 2.348,-0.972 0.52,-0.52 0.82,-1.176 0.922,-1.852 3.344,-0.176 6.566,1.031 8.957,3.422 4.602,4.601 4.602,12.09 0,16.691 -4.602,4.602 -12.086,4.602 -16.687,0 -2.137,-2.136 -3.34,-4.945 -3.438,-7.949 0.594,-0.141 1.137,-0.434 1.578,-0.875 1.293,-1.293 1.293,-3.398 0,-4.695 -1.254,-1.254 -3.441,-1.25 -4.691,0 -1.297,1.297 -1.297,3.402 -0.004,4.695 0.293,0.289 0.629,0.512 0.988,0.672 0.051,3.648 1.481,7.066 4.067,9.652 2.714,2.715 6.277,4.071 9.843,4.071 3.567,0 7.129,-1.356 9.844,-4.071 1.363,-1.363 2.379,-2.937 3.059,-4.621 2.093,5.043 7.066,8.602 12.859,8.602 l 9.73,0 c 0.446,1.308 1.676,2.262 3.133,2.262 1.828,0 3.317,-1.493 3.317,-3.321 0,-1.832 -1.489,-3.32 -3.317,-3.32 -1.457,0 -2.687,0.949 -3.133,2.258 l -9.73,0 c -6.508,0 -11.801,-5.293 -11.801,-11.801 0,-6.508 5.293,-11.801 11.801,-11.801 l 6.574,0 c 0.586,0 1.059,-0.473 1.059,-1.058 l 0,-10.047 8.078,0 0,2.722 -2.852,0.004 c -0.582,0 -1.058,0.477 -1.058,1.059 l 0,15.992 c -1.309,0.445 -2.258,1.672 -2.258,3.129 0,1.832 1.488,3.32 3.32,3.32 1.828,0 3.317,-1.488 3.317,-3.32 0,-1.457 -0.95,-2.684 -2.258,-3.129 l 0,-14.93 2.847,-0.004 c 0.586,0 1.059,-0.476 1.059,-1.058 l 0,-4.844 c 0,-0.586 -0.473,-1.062 -1.059,-1.062" /></g></g><g
       transform="matrix(2,0,0,2,-471.926,-360.035)"
       id="g78"><g
         clip-path="url(#clipPath82)"
         id="g80"><path
           id="path86"
           style="fill:#000000;fill-opacity:1;fill-rule:nonzero;stroke:none"
           d="m 494.559,336.965 c 0,5.172 -4.184,9.379 -9.325,9.379 -5.172,0 -9.379,-4.207 -9.379,-9.379 0,-5.141 4.207,-9.324 9.379,-9.324 5.141,0 9.325,4.183 9.325,9.324 m -9.325,-13.305 c -7.336,0 -13.308,5.969 -13.308,13.305 0,7.34 5.972,13.308 13.308,13.308 7.336,0 13.305,-5.968 13.305,-13.308 0,-7.336 -5.969,-13.305 -13.305,-13.305" /></g></g><g
       transform="matrix(2,0,0,2,-471.926,-360.035)"
       id="g88"><g
         clip-path="url(#clipPath92)"
         id="g90"><path
           id="path96"
           style="fill:#000000;fill-opacity:1;fill-rule:nonzero;stroke:none"
           d="m 524.68,336.965 c 0,5.172 -4.184,9.379 -9.328,9.379 -5.168,0 -9.375,-4.207 -9.375,-9.379 0,-5.141 4.207,-9.324 9.375,-9.324 5.144,0 9.328,4.183 9.328,9.324 m -9.328,-13.305 c -7.336,0 -13.305,5.969 -13.305,13.332 l 0,21.946 c 0,0.656 0.441,1.097 1.101,1.097 l 1.676,0 c 0.66,0 1.102,-0.441 1.102,-1.097 l 0,-12.622 c 2.5,2.52 5.91,3.957 9.426,3.957 7.339,0 13.308,-5.968 13.308,-13.308 0,-7.336 -5.969,-13.305 -13.308,-13.305" /></g></g><g
       transform="matrix(2,0,0,2,-471.926,-360.035)"
       id="g98"><path
         id="path100"
         style="fill:#000000;fill-opacity:1;fill-rule:nonzero;stroke:none"
         d="m 600.582,347.086 c -5.582,0 -10.121,-4.539 -10.121,-10.121 0,-5.61 4.539,-10.172 10.121,-10.172 5.609,0 10.172,4.562 10.172,10.172 0,5.582 -4.563,10.121 -10.172,10.121 m 12.207,-32.395 -1.68,0 c -0.222,0 -0.304,0.082 -0.304,0.305 l 0,14.637 -1.059,-1.145 c -2.375,-2.562 -5.715,-4.035 -9.164,-4.035 -6.898,0 -12.512,5.613 -12.512,12.512 0,6.898 5.614,12.512 12.512,12.512 6.898,0 12.512,-5.614 12.512,-12.512 l -0.035,-0.949 0.035,0 0,-21.02 c 0,-0.223 -0.082,-0.305 -0.305,-0.305" /><path
         id="path102"
         style="fill:#000000;fill-opacity:1;fill-rule:nonzero;stroke:none"
         d="m 535.961,334.949 c 0.859,-4.933 5.016,-7.515 8.734,-7.515 4.258,0 7.996,3.218 8.785,7.515 l -17.519,0 z m 8.734,-11.289 c -7.351,0 -12.898,5.524 -12.898,12.848 0,6.765 4.957,13.765 13.254,13.765 3.851,0 7.457,-1.539 10.179,-4.359 0.403,-0.461 0.395,-1.019 0,-1.469 l -1.027,-1.281 c -0.277,-0.352 -0.574,-0.441 -0.765,-0.453 -0.45,-0.047 -0.704,0.242 -0.762,0.305 -1.332,1.222 -4.094,3.277 -7.625,3.277 -4.567,0 -8.278,-3.27 -9.09,-7.973 l 20.687,0 c 0.688,0 1.098,-0.41 1.098,-1.101 l 0,-0.039 c -0.406,-7.961 -5.773,-13.52 -13.051,-13.52" /><path
         id="path104"
         style="fill:#000000;fill-opacity:1;fill-rule:nonzero;stroke:none"
         d="m 621.234,335.043 c 0.844,-5.516 5.446,-8.402 9.555,-8.402 4.715,0 8.844,3.609 9.606,8.398 l 0.113,0.707 -19.379,0 0.105,-0.703 z m 9.914,14.434 c 3.629,0 7.032,-1.454 9.579,-4.086 0.132,-0.157 0.132,-0.27 -0.024,-0.446 l -1.031,-1.289 c -0.086,-0.109 -0.156,-0.148 -0.195,-0.152 -0.067,-0.004 -0.106,0.035 -0.172,0.098 -1.426,1.312 -4.356,3.484 -8.157,3.484 -5.039,0 -9.117,-3.641 -9.914,-8.859 l -0.105,-0.704 21.613,0 c 0.246,0 0.305,-0.054 0.305,-0.304 -0.387,-7.504 -5.426,-12.766 -12.258,-12.766 -6.898,0 -12.101,5.184 -12.101,12.055 0,6.375 4.66,12.969 12.46,12.969" /></g><g
       transform="matrix(2,0,0,2,-471.926,-360.035)"
       id="g106"><g
         clip-path="url(#clipPath110)"
         id="g108"><path
           id="path114"
           style="fill:#000000;fill-opacity:1;fill-rule:nonzero;stroke:none"
           d="m 655.48,349.07 1.067,0 c 0.265,0 0.32,-0.156 0.344,-0.215 l 9.824,-23.972 c 0,-0.008 0.004,-0.012 0.004,-0.02 -0.012,0 -0.031,0 -0.051,0 l -2.188,0 c -0.261,0 -0.32,0.16 -0.339,0.211 l -8.106,20.637 -8.043,-20.629 c -0.023,-0.059 -0.082,-0.219 -0.344,-0.219 l -2.238,0 c -0.019,0 -0.035,0 -0.051,0 0.004,0.012 0.008,0.028 0.016,0.043 l 9.754,23.934 c 0.031,0.074 0.086,0.23 0.351,0.23" /></g></g><path
       d="m 688.37,338.105 z m 3.454,1.586 c 1.32,0 2.204,-0.882 2.204,-2.194 l 0,-28.688 c 0,-11.852 -9.642,-21.508 -21.524,-21.516 l -0.25,-0.008 c -11.844,0 -21.484,9.656 -21.484,21.524 l 0,28.688 c 0,1.312 0.882,2.194 2.202,2.194 l 3.462,0 c 1.312,0 2.194,-0.882 2.194,-2.194 l 0,-28.688 c 0,-7.586 6.18,-13.766 13.774,-13.766 7.594,0 13.766,6.18 13.766,13.766 l 0,28.688 c 0,1.312 0.882,2.194 2.202,2.194 l 3.454,0 z"
       style="fill:#000000;fill-opacity:1;fill-rule:nonzero;stroke:none"
       id="path118" /></g></svg>